<svg xmlns="http://www.w3.org/2000/svg">
    <!-- Список -->
    <symbol id="list" viewBox="0 0 24 24" width="24" height="24">
        <path d="M18 2H6a2 2 0 0 0-2 2v16a2 2 0 0 0 2 2h12a2 2 0 0 0 2-2V4a2 2 0 0 0-2-2zm0 0v4H6V2h12zm-5 5h2M9 7h6M9 10h6M9 13h6M9 16h3"/>
    </symbol>

    <!-- Мусорка -->
    <symbol id="trash" viewBox="0 0 24 24" width="24" height="24">
        <path d="M5 7H21M9 7V4a2 2 0 0 1 2-2h2a2 2 0 0 1 2 2v3M3 7l1 14a2 2 0 0 0 2 2h14a2 2 0 0 0 2-2l1-14M9 11h6"/>
    </symbol>

    <!-- Избранное -->
    <symbol id="favorites" viewBox="0 0 24 24" width="24" height="24">
        <path d="M12 21.35l-1.45-1.32C5.4 15.36 2 12.28 2 8.5 2 5.42 4.42 3 7.5 3c1.74 0 3.41.81 4.5 2.09C13.09 3.81 14.76 3 16.5 3 19.58 3 22 5.42 22 8.5c0 3.78-3.4 6.86-8.55 11.54L12 21.35z"/>
    </symbol>
</svg>
